<svg xmlns="http://www.w3.org/2000/svg" xmlns:xlink="http://www.w3.org/1999/xlink" version="1.1" x="0px" y="0px" viewBox="0 0 10 12.5" enable-background="new 0 0 10 10" xml:space="preserve"><g><rect x="2.886" y="4.264" width="0.392" height="1.1"/><path d="M6.948,6.694h0.011V4.813c0-1.497-1.214-2.712-2.714-2.712c-1.497,0-2.711,1.215-2.711,2.712v1.882h0.01   C1.597,7.16,2.009,7.526,2.511,7.526h3.473c0.456,0,0.836-0.304,0.939-0.709C6.934,6.777,6.944,6.736,6.948,6.694z M4.245,6.598   c-0.982,0-1.782-0.8-1.782-1.785c0-0.984,0.8-1.783,1.782-1.783c0.986,0,1.785,0.799,1.785,1.783   C6.03,5.798,5.231,6.598,4.245,6.598z"/><rect x="3.644" y="4.264" width="0.392" height="0.709"/><rect x="4.459" y="4.264" width="0.391" height="1.1"/><rect x="5.216" y="4.264" width="0.393" height="0.709"/><path d="M8.158,6.817H7.962H7.217c0,0-0.126,0.537-0.452,0.709h1.197v0.488h0.391V6.817H8.158z"/></g><text x="0" y="25" fill="#000000" font-size="5px" font-weight="bold" font-family="'Helvetica Neue', Helvetica, Arial-Unicode, Arial, Sans-serif">Created by verry obito</text><text x="0" y="30" fill="#000000" font-size="5px" font-weight="bold" font-family="'Helvetica Neue', Helvetica, Arial-Unicode, Arial, Sans-serif">from the Noun Project</text></svg>